<svg xmlns:xlink="http://www.w3.org/1999/xlink" xmlns="http://www.w3.org/2000/svg" viewBox="0 0 672.5 100" width="672.5"  height="100" ><path fill="#E6E6E6" d="M86.1 26.4c-.1-1-.9-2-2-2.3l-38.3-13c-.6-.2-1.4-.2-2.1 0l-38.4 13c-1 .3-1.9 1.2-2 2.3C.6 52.5 5 72.3 16.8 85.5 28.9 98.7 44 99.8 44.7 99.8h.4c.6 0 15.8-1 27.8-14.3C84.6 72.3 89 52.4 86.1 26.4z"/><path fill="#FFF" d="M87.2 17.1c-.1-1.1-.9-2.2-2-2.5L46.1.4c-.6-.2-1.4-.2-2.1 0L4.8 14.6c-1 .3-1.9 1.3-2 2.5-3 28.5 1.5 50 13.6 64.2C28.7 95.8 44.1 97 44.8 97h.4c.6 0 16.1-1.1 28.4-15.6 12-14.3 16.6-36 13.6-64.3z"/><path fill="#EA212E" d="M82.2 20.2c-.1-1-.8-1.9-1.7-2.2L45.6 5.4c-.5-.2-1.3-.2-1.8 0L9 18c-.9.3-1.6 1.2-1.7 2.2-2.7 25.3 1.3 44.4 12 57.1C30.2 90.2 44 91.2 44.5 91.2h.4c.5 0 14.3-1 25.2-13.8 10.7-12.8 14.7-32 12.1-57.2zM31.2 82c-.5-.3-.8-.5-1.3-.8 9.3-2 16.9-5.9 23.8-10.1-6.2 4.1-13.8 8.3-22.5 10.9zm44.7-42.7c-1.3 2.8-2.7 5.1-4.5 7.5-3.6 4.5-7.8 8.2-12.6 11.5-4.8 3.4-10 6.3-15.6 8.8-2.7 1.2-5.8 2.4-9.2 3.2-3.1.8-7.1 1.6-10.7.8-1.4-.3-2.6-.6-3.6-1.3-1.2-1.9-2.2-4-3.1-6.2.1-2.7 1.5-5.1 2.7-7.1 3.1-4.9 7.5-8.6 12.6-11.5 5.1-3.1 11-5.7 19-5.6-6.4 1-10.7 3.1-14.9 6-3.7 2.6-8 6.4-9.2 11.4-.8 3.5.8 5.7 3.2 6.7 2.4 1 6.1.9 9.1.5 6.1-.7 11.2-3.2 15.3-5.7 6.3-3.8 11.9-8.9 15.6-15.5 1.2-2.2 2.3-4.7 2.8-7.3 1.2-7.2-2.5-11.1-7.7-12.5s-12.9-.3-18.1 1.4c-10.6 3.3-19.1 8.8-26.4 15.3-2.8 2.5-5.4 5.2-7.9 8.2-.2-1.4-.4-2.7-.5-4.1 2.2-2.3 4.6-4.3 7.1-6.3 4.9-4.1 10.6-7.6 16.9-10.5 6.2-2.9 13.6-5.2 21.8-6l3.5-.1c7.5.1 13.7 2.2 15.5 8.5 1 3.4 0 7.1-1.1 9.9zm-22.7.8c1.5.1 3 .1 4.5 0 .5 0 1.1.2 1.5.1.5-.1 1.1-.8 1.6-1.1 1.5-1.2 3-2.6 4.4-3.7-.5 1.5-1.5 3.1-2.2 4.8 2 .1 4.2.1 6.4.2-2.5 1.1-5.1 2-7.8 2.9-.8 1.7-1.6 3.5-2.5 5.2-.9-1-1.6-2.3-2.5-3.3L49.1 48c2.1-1.6 4.1-3.2 6.2-4.9-.6-.9-1.4-2-2.1-3z"/><linearGradient id="a" gradientUnits="userSpaceOnUse" x1="16.1" y1="365.075" x2="73.297" y2="314.972" gradientTransform="translate(0 -298)"><stop offset="0" stop-color="#f1f1f2" stop-opacity=".2"/><stop offset="1" stop-color="#f1f1f2" stop-opacity="0"/></linearGradient><path fill="url(#a)" d="M79.4 19.6c-.1-1-.7-1.8-1.6-2.1l-32-11.9c-.5-.2-1.1-.2-1.6 0l-32 11.9c-.9.4-1.6 1.2-1.6 2.1-2.4 23.9 1.3 42 11.2 53.9 10 12.2 22.6 13.1 23.2 13.1h.4c.5 0 13.2-.9 23.2-13.1 9.5-11.9 13.3-30 10.8-53.9z"/><path fill="#333" d="M101.7 51.3c.1 2.7 2.2 3.9 4.7 3.9 1.8 0 3-.2 4.2-.7l.6 2.6c-1.3.5-3.1.9-5.3.9-4.9 0-7.8-3-7.8-7.6 0-4.2 2.5-8.1 7.4-8.1s6.5 4 6.5 7.4c0 .7-.1 1.3-.1 1.6h-10.2zm6.7-2.7c0-1.4-.6-3.7-3.1-3.7-2.4 0-3.4 2.1-3.5 3.7h6.6zm14.3-.4v2.6h-7.9v-2.6h7.9zm3.2-11.1c1.7-.3 3.8-.4 6.1-.4 3.9 0 6.6.8 8.5 2.4 2 1.6 3.3 4.1 3.3 7.7 0 3.7-1.3 6.5-3.3 8.3-2.1 1.9-5.4 2.9-9.5 2.9-2.2 0-3.9-.1-5.2-.3l.1-20.6zm3.8 17.8c.5.1 1.3.1 2.1.1 5 0 7.9-2.7 7.9-8 0-4.6-2.6-7.3-7.4-7.3-1.2 0-2.1.1-2.6.2v15zm19.9-3.6c.1 2.7 2.2 3.9 4.7 3.9 1.8 0 3-.2 4.2-.7l.6 2.6c-1.3.5-3.1.9-5.3.9-4.9 0-7.8-3-7.8-7.6 0-4.2 2.5-8.1 7.4-8.1s6.5 4 6.5 7.4c0 .7-.1 1.3-.1 1.6h-10.2zm6.6-2.7c0-1.4-.6-3.7-3.1-3.7-2.4 0-3.4 2.1-3.5 3.7h6.6zm9-5.9l2.5 7.7c.4 1.3.7 2.5 1 3.8h.1c.3-1.2.6-2.4 1-3.8l2.4-7.7h4l-5.8 15.1h-3.8L161 42.7h4.2zm13.4-7h3.8v22h-3.8v-22zm10.6 15.6c.1 2.7 2.2 3.9 4.7 3.9 1.8 0 3-.2 4.2-.7l.6 2.6c-1.3.5-3.1.9-5.3.9-4.9 0-7.8-3-7.8-7.6 0-4.2 2.5-8.1 7.4-8.1s6.5 4 6.5 7.4c0 .7-.1 1.3-.1 1.6h-10.2zm6.7-2.7c0-1.4-.6-3.7-3.1-3.7-2.4 0-3.4 2.1-3.5 3.7h6.6zm11-10.3v4.3h3.6v2.9h-3.6v6.7c0 1.8.5 2.8 2 2.8.7 0 1.1-.1 1.5-.2l.1 2.9c-.6.2-1.6.4-2.8.4-1.4 0-2.6-.5-3.3-1.2-.8-.9-1.2-2.2-1.2-4.2v-7.1H201v-2.9h2.2v-3.4l3.7-1zm13.1-1.4h3.8v9.6h.1c.5-.8 1-1.6 1.5-2.3l5.5-7.4h4.7l-7.2 8.9 7.7 12h-4.5l-5.9-9.6-1.9 2.2v7.4H220V36.9zm26.6 20.9l-.2-1.7h-.1c-.9 1.2-2.5 2-4.5 2-3 0-4.7-2.2-4.7-4.5 0-3.8 3.4-5.7 9-5.7v-.2c0-1-.4-2.6-3.1-2.6-1.5 0-3 .5-4.1 1.1l-.7-2.5c1.1-.7 3.1-1.3 5.5-1.3 4.8 0 6.2 3.1 6.2 6.4v5.5c0 1.4.1 2.7.2 3.6l-3.5-.1zm-.5-7.4c-2.7-.1-5.3.5-5.3 2.8 0 1.5 1 2.2 2.2 2.2 1.5 0 2.6-1 3-2.1.1-.3.1-.6.1-.8v-2.1zm7.8-2.7c0-2-.1-3.6-.1-5h3.4l.2 2.3h.1c1.1-1.7 2.9-2.7 5.2-2.7 3.5 0 6.4 3 6.4 7.7 0 5.5-3.4 8.1-6.9 8.1-1.9 0-3.5-.8-4.3-2h-.1v7.8H254V47.7h-.1zm3.8 3.7c0 .4 0 .7.1 1.1.4 1.6 1.7 2.7 3.4 2.7 2.4 0 3.8-2 3.8-5 0-2.7-1.3-4.8-3.8-4.8-1.6 0-3 1.1-3.4 2.8-.1.3-.2.7-.2 1v2.2h.1zm14.4 6.4V42.7h3.8v15.1h-3.8zm7.7-3.5c.9.5 2.5 1.1 3.9 1.1 1.7 0 2.4-.7 2.4-1.7s-.6-1.6-2.5-2.2c-2.9-1-4.2-2.6-4.2-4.4 0-2.7 2.2-4.7 5.7-4.7 1.7 0 3.1.4 4 .9l-.7 2.7c-.7-.4-1.9-.9-3.2-.9-1.4 0-2.1.7-2.1 1.6 0 1 .7 1.4 2.6 2.1 2.7 1 4 2.4 4 4.6 0 2.7-2.1 4.7-6.1 4.7-1.8 0-3.5-.4-4.6-1.1l.8-2.7zm13.1 3.5V42.7h3.8v15.1h-3.8z"/><path fill="#4D4D4D" d="M307.8 36.9h2.7V47h.1c.6-.8 1.1-1.6 1.6-2.2l6.4-7.9h3.4l-7.6 8.9 8.2 12h-3.2l-6.9-10.3-2 2.3v8h-2.7V36.9zm20 1.6c0 .9-.7 1.7-1.7 1.7s-1.6-.7-1.6-1.7.7-1.7 1.7-1.7 1.6.8 1.6 1.7zm-3 19.3v-15h2.7v15h-2.7zm7.3-11c0-1.6 0-2.8-.1-4.1h2.4l.1 2.4h.1c.8-1.4 2.2-2.8 4.7-2.8 2 0 3.6 1.2 4.3 3h.1c.5-.8 1.1-1.5 1.7-2 .9-.7 1.9-1.1 3.3-1.1 2 0 4.9 1.3 4.9 6.5v8.8h-2.7V49c0-2.9-1.1-4.6-3.3-4.6-1.6 0-2.8 1.1-3.2 2.5-.1.4-.2.9-.2 1.4v9.3h-2.7v-9c0-2.4-1.1-4.1-3.1-4.1-1.7 0-2.9 1.4-3.4 2.7-.2.4-.2.9-.2 1.3v9.1h-2.7V46.8zm25.8-11.1h2.7v22h-2.7v-22zm10.4 2.8c0 .9-.7 1.7-1.7 1.7s-1.6-.7-1.6-1.7.7-1.7 1.7-1.7c.9 0 1.6.8 1.6 1.7zm-3.1 19.3v-15h2.7v15h-2.7zm10-8.2c.4-.5 1-1.2 1.4-1.7l4.4-5.2h3.3l-5.8 6.2 6.6 8.8h-3.3l-5.2-7.2-1.4 1.6v5.6h-2.7v-22h2.7v13.9zm18.5-12.5c1.6-.2 3.6-.4 5.7-.4 3.9 0 6.6.9 8.5 2.6 1.9 1.7 2.9 4.1 2.9 7.5s-1.1 6.2-3 8.1c-2 2-5.2 3-9.2 3-1.9 0-3.5-.1-4.9-.2V37.1zm2.7 18.5c.7.1 1.7.2 2.7.2 5.8 0 8.9-3.2 8.9-8.9 0-4.9-2.8-8.1-8.5-8.1-1.4 0-2.5.1-3.2.3v16.5h.1zm31.6-5.5c0 5.6-3.8 8-7.5 8-4.1 0-7.2-3-7.2-7.7 0-5 3.3-8 7.4-8 4.4 0 7.3 3.1 7.3 7.7zm-11.9.2c0 3.3 1.9 5.8 4.6 5.8 2.6 0 4.6-2.5 4.6-5.8 0-2.5-1.3-5.8-4.5-5.8s-4.7 2.9-4.7 5.8zm28.3-7.5c-.1 1.1-.1 2.3-.1 4.1v8.7c0 3.4-.7 5.6-2.1 6.9-1.5 1.4-3.6 1.8-5.5 1.8-1.8 0-3.8-.4-5-1.2l.7-2.1c1 .6 2.5 1.2 4.4 1.2 2.8 0 4.8-1.5 4.8-5.2v-1.7h-.1c-.8 1.4-2.5 2.5-4.8 2.5-3.7 0-6.4-3.2-6.4-7.3 0-5.1 3.3-8 6.8-8 2.6 0 4 1.4 4.7 2.6h.1l.1-2.3h2.4zm-2.8 5.9c0-.5 0-.9-.2-1.2-.5-1.6-1.8-2.9-3.8-2.9-2.6 0-4.5 2.2-4.5 5.7 0 2.9 1.5 5.4 4.4 5.4 1.7 0 3.2-1.1 3.8-2.8.2-.5.2-1 .2-1.5v-2.7h.1zm-6.2-12.1c.2 1.2 1 2.1 2.2 2.1 1.5 0 2.1-1.1 2.2-2.1h1.6c0 2.3-1.5 3.8-3.8 3.8-2.7 0-3.8-1.9-3.8-3.8h1.6zm13.2 10.8c0-1.8 0-3.3-.1-4.7h2.4l.1 2.9h.1c.7-2 2.3-3.3 4.2-3.3.3 0 .5 0 .8.1V45c-.3-.1-.6-.1-.9-.1-1.9 0-3.3 1.5-3.7 3.5-.1.4-.1.8-.1 1.3v8h-2.7l-.1-10.3zm22.7 6.3c0 1.6 0 2.9.1 4.1H469l-.2-2.5h-.1c-.7 1.2-2.3 2.8-5 2.8-2.4 0-5.2-1.3-5.2-6.6v-8.8h2.7V51c0 2.9.9 4.8 3.4 4.8 1.8 0 3.1-1.3 3.6-2.5.2-.4.2-.9.2-1.4v-9.2h2.7v11h.2zm4.5-18h2.7v22h-2.7v-22zm15.7 22.1l-.2-1.9h-.1c-.8 1.2-2.5 2.2-4.6 2.2-3 0-4.6-2.1-4.6-4.3 0-3.6 3.2-5.6 9-5.6v-.3c0-1.2-.3-3.5-3.4-3.5-1.4 0-2.9.4-3.9 1.1l-.6-1.8c1.2-.8 3-1.3 4.9-1.3 4.6 0 5.7 3.1 5.7 6.1v5.6c0 1.3.1 2.6.2 3.6h-2.4v.1zm-.4-7.7c-3-.1-6.4.5-6.4 3.4 0 1.8 1.2 2.6 2.6 2.6 2 0 3.2-1.2 3.6-2.5.1-.3.2-.6.2-.9v-2.6zm7-3.3c0-1.6 0-2.8-.1-4.1h2.4l.1 2.4h.1c.8-1.4 2.2-2.8 4.7-2.8 2 0 3.6 1.2 4.3 3h.1c.5-.8 1.1-1.5 1.7-2 .9-.7 1.9-1.1 3.3-1.1 2 0 4.9 1.3 4.9 6.5v8.8h-2.7V49c0-2.9-1.1-4.6-3.3-4.6-1.6 0-2.8 1.1-3.2 2.5-.1.4-.2.9-.2 1.4v9.3h-2.7v-9c0-2.4-1.1-4.1-3.1-4.1-1.7 0-2.9 1.4-3.4 2.7-.2.4-.2.9-.2 1.3v9.1h-2.7V46.8zm34.2 11l-.2-1.9h-.1c-.8 1.2-2.5 2.2-4.6 2.2-3 0-4.6-2.1-4.6-4.3 0-3.6 3.2-5.6 9-5.6v-.3c0-1.2-.3-3.5-3.4-3.5-1.4 0-2.9.4-3.9 1.1l-.6-1.8c1.2-.8 3-1.3 4.9-1.3 4.6 0 5.7 3.1 5.7 6.1v5.6c0 1.3.1 2.6.2 3.6h-2.4v.1zm-.4-7.7c-3-.1-6.4.5-6.4 3.4 0 1.8 1.2 2.6 2.6 2.6 2 0 3.2-1.2 3.6-2.5.1-.3.2-.6.2-.9v-2.6zm13.3 4.4c1.2.7 3 1.4 4.8 1.4 2.8 0 4.4-1.5 4.4-3.6 0-2-1.1-3.1-3.9-4.2-3.4-1.2-5.5-3-5.5-5.9 0-3.3 2.7-5.7 6.8-5.7 2.1 0 3.7.5 4.6 1l-.7 2.2c-.7-.4-2.1-1-4-1-2.9 0-3.9 1.7-3.9 3.1 0 2 1.3 2.9 4.2 4 3.5 1.4 5.3 3.1 5.3 6.1 0 3.2-2.4 6-7.3 6-2 0-4.2-.6-5.3-1.3l.5-2.1zm18.7-16c0 .9-.7 1.7-1.7 1.7s-1.6-.7-1.6-1.7.7-1.7 1.7-1.7c.9 0 1.6.8 1.6 1.7zm-3.1 19.3v-15h2.7v15h-2.7zm6.9-2.8c.8.5 2.2 1.1 3.6 1.1 2 0 2.9-1 2.9-2.2 0-1.3-.8-2-2.8-2.8-2.7-1-4-2.5-4-4.3 0-2.4 2-4.4 5.2-4.4 1.5 0 2.9.4 3.7.9l-.7 2c-.6-.4-1.7-.9-3.1-.9-1.6 0-2.5.9-2.5 2 0 1.2.9 1.8 2.9 2.5 2.6 1 3.9 2.3 3.9 4.5 0 2.6-2 4.5-5.6 4.5-1.6 0-3.2-.4-4.2-1l.7-1.9zm16-16.6v4.3h3.9v2.1h-3.9v8.1c0 1.9.5 2.9 2 2.9.7 0 1.2-.1 1.6-.2l.1 2c-.5.2-1.4.4-2.4.4-1.3 0-2.3-.4-2.9-1.1-.8-.8-1.1-2.1-1.1-3.9v-8.2h-2.3v-2.1h2.3v-3.6l2.7-.7zm8.3 12.4c.1 3.7 2.4 5.2 5.2 5.2 2 0 3.1-.3 4.2-.8l.5 2c-1 .4-2.6.9-5 .9-4.6 0-7.4-3-7.4-7.6 0-4.5 2.7-8.1 7-8.1 4.9 0 6.2 4.3 6.2 7.1 0 .6-.1 1-.1 1.3H592zm8-2c0-1.7-.7-4.4-3.8-4.4-2.8 0-4 2.5-4.2 4.4h8zm6-2c0-1.6 0-2.8-.1-4.1h2.4l.1 2.4h.1c.8-1.4 2.2-2.8 4.7-2.8 2 0 3.6 1.2 4.3 3h.1c.5-.8 1.1-1.5 1.7-2 .9-.7 1.9-1.1 3.3-1.1 2 0 4.9 1.3 4.9 6.5v8.8h-2.7V49c0-2.9-1.1-4.6-3.3-4.6-1.6 0-2.8 1.1-3.2 2.5-.1.4-.2.9-.2 1.4v9.3h-2.7v-9c0-2.4-1.1-4.1-3.1-4.1-1.7 0-2.9 1.4-3.4 2.7-.2.4-.2.9-.2 1.3v9.1H606V46.8zm28.9-8.3c0 .9-.7 1.7-1.7 1.7s-1.6-.7-1.6-1.7.7-1.7 1.7-1.7 1.6.8 1.6 1.7zm-3 19.3v-15h2.7v15h-2.7z"/></svg>