<svg id="Layer_1" xmlns="http://www.w3.org/2000/svg" width="128" height="128" viewBox="0 0 128 128"><style>.st0{fill:#7f7f7f}.st1{fill:#fff}</style><g><circle class="st0" cx="64" cy="64" r="64"/><path class="st1" d="M105.9 53.8L100 32c-.4-1.4-1.5-1.7-2.6-.7l-5.2 5.2c0-.1-.1-.1-.1-.2-7.7-7.7-18-12-29-12s-21.3 4.3-29 12C28.5 41.9 24.6 49 23 56.7c-.5 2.1.9 4.2 3 4.7.3.1.6.1.8.1 1.8 0 3.5-1.3 3.8-3.1 1.3-6.2 4.4-12 9-16.5 6.3-6.3 14.6-9.7 23.4-9.7 8.9 0 17.2 3.4 23.4 9.7.1.1.1.1.2.1l-5.2 5.2c-1 1-.7 2.2.7 2.6l21.8 5.8c1.5.4 2.4-.4 2-1.8zM102 68.6c-2.1-.5-4.2.9-4.7 3-1.3 6.2-4.4 11.9-9 16.5-6.3 6.3-14.6 9.7-23.4 9.7-8.9 0-17.2-3.4-23.4-9.7-.1-.1-.1-.1-.2-.1l5.2-5.2c1-1 .7-2.2-.7-2.6L24 74.3c-1.4-.4-2.3.5-1.9 1.9L28 98c.4 1.4 1.5 1.7 2.6.7l5.2-5.2c0 .1.1.1.1.2 7.7 7.7 18 12 29 12s21.3-4.3 29-12c5.6-5.6 9.5-12.7 11.1-20.4.5-2.1-.9-4.2-3-4.7z"/><animateTransform accumulate="none" additive="replace" attributeName="transform" calcMode="linear" dur="2s" fill="remove" from="0 64 64" repeatCount="indefinite" restart="always" to="360 64 64" type="rotate"/></g></svg>